<svg width="149" height="72" viewBox="0 0 149 72" fill="none" xmlns="http://www.w3.org/2000/svg">
<path d="M140.414 16.1331L137.49 6.61312H137.422C137.433 6.83978 137.45 7.17978 137.473 7.63312C137.495 8.08645 137.518 8.57378 137.541 9.09512C137.563 9.60512 137.575 10.0698 137.575 10.4891V16.1331H135.28V3.99512H138.782L141.655 13.2771H141.706L144.749 3.99512H148.251V16.1331H145.854V10.3871C145.854 10.0018 145.859 9.55978 145.871 9.06112C145.893 8.56245 145.91 8.09212 145.922 7.65012C145.944 7.19678 145.961 6.85678 145.973 6.63012H145.905L142.777 16.1331H140.414Z" fill="#E30611"/>
<path d="M132.255 10.0466C132.255 10.9873 132.136 11.843 131.898 12.6136C131.672 13.373 131.32 14.0303 130.844 14.5856C130.38 15.141 129.779 15.5659 129.042 15.8606C128.317 16.1553 127.461 16.3026 126.475 16.3026C125.489 16.3026 124.628 16.1553 123.891 15.8606C123.166 15.5546 122.565 15.1296 122.089 14.5856C121.625 14.0303 121.273 13.3673 121.035 12.5966C120.809 11.8259 120.695 10.9703 120.695 10.0296C120.695 8.77162 120.899 7.67795 121.307 6.74862C121.727 5.81928 122.361 5.09962 123.211 4.58962C124.073 4.06828 125.166 3.80762 126.492 3.80762C127.807 3.80762 128.889 4.06828 129.739 4.58962C130.589 5.09962 131.218 5.82495 131.626 6.76562C132.046 7.69495 132.255 8.78862 132.255 10.0466ZM123.398 10.0466C123.398 10.8966 123.506 11.6276 123.721 12.2396C123.937 12.8516 124.271 13.322 124.724 13.6506C125.178 13.9793 125.761 14.1436 126.475 14.1436C127.212 14.1436 127.801 13.9793 128.243 13.6506C128.697 13.322 129.025 12.8516 129.229 12.2396C129.445 11.6276 129.552 10.8966 129.552 10.0466C129.552 8.76595 129.314 7.76295 128.838 7.03762C128.362 6.31228 127.58 5.94962 126.492 5.94962C125.767 5.94962 125.178 6.11395 124.724 6.44262C124.271 6.77128 123.937 7.24162 123.721 7.85362C123.506 8.46562 123.398 9.19662 123.398 10.0466Z" fill="#E30611"/>
<path d="M117.25 3.99512V13.9911H118.865V19.6691H116.383V16.1331H108.784V19.6691H106.302V13.9911H107.237C107.554 13.3565 107.86 12.6878 108.155 11.9851C108.449 11.2825 108.721 10.5288 108.971 9.72412C109.231 8.91945 109.464 8.04678 109.668 7.10612C109.872 6.15412 110.042 5.11712 110.178 3.99512H117.25ZM112.218 6.13712C112.138 6.72645 112.025 7.35545 111.878 8.02412C111.73 8.68145 111.555 9.35578 111.351 10.0471C111.158 10.7385 110.943 11.4185 110.705 12.0871C110.467 12.7558 110.212 13.3905 109.94 13.9911H114.683V6.13712H112.218Z" fill="#E30611"/>
<path d="M97.8084 0C97.7518 0.589334 97.5875 1.11067 97.3155 1.564C97.0435 2.006 96.6185 2.35167 96.0405 2.601C95.4625 2.85033 94.6861 2.975 93.7114 2.975C92.7141 2.975 91.9321 2.856 91.3654 2.618C90.8101 2.36867 90.4134 2.023 90.1754 1.581C89.9374 1.139 89.7958 0.612 89.7505 0H92.0115C92.0681 0.623333 92.2268 1.037 92.4874 1.241C92.7481 1.445 93.1731 1.547 93.7625 1.547C94.2498 1.547 94.6464 1.43933 94.9524 1.224C95.2698 0.997334 95.4568 0.589334 95.5135 0H97.8084ZM88.0334 3.995H90.3455V9.86C90.3455 10.1433 90.3398 10.4607 90.3284 10.812C90.3171 11.1633 90.3058 11.509 90.2944 11.849C90.2831 12.1777 90.2718 12.4667 90.2605 12.716C90.2491 12.954 90.2378 13.1183 90.2264 13.209H90.2775L95.8875 3.995H98.9644V16.133H96.6694V10.302C96.6694 9.996 96.6751 9.66167 96.6864 9.299C96.6978 8.925 96.7091 8.568 96.7205 8.228C96.7431 7.888 96.7601 7.59333 96.7714 7.344C96.7941 7.08333 96.8111 6.91333 96.8224 6.834H96.7544L91.1274 16.133H88.0334V3.995Z" fill="#E30611"/>
<path d="M72.1172 16.1331V3.99512H74.6842V8.65312H75.5172C76.6392 8.65312 77.5629 8.81178 78.2882 9.12912C79.0135 9.44645 79.5462 9.88278 79.8862 10.4381C80.2375 10.9935 80.4132 11.6281 80.4132 12.3421C80.4132 13.1355 80.2375 13.8155 79.8862 14.3821C79.5349 14.9488 78.9909 15.3851 78.2542 15.6911C77.5289 15.9858 76.5882 16.1331 75.4322 16.1331H72.1172ZM75.3642 14.0251C76.1235 14.0251 76.7185 13.9005 77.1492 13.6511C77.5912 13.4018 77.8122 12.9655 77.8122 12.3421C77.8122 11.9115 77.7102 11.5828 77.5062 11.3561C77.3135 11.1295 77.0245 10.9765 76.6392 10.8971C76.2539 10.8065 75.7892 10.7611 75.2452 10.7611H74.6842V14.0251H75.3642ZM81.8922 16.1331V3.99512H84.4592V16.1331H81.8922Z" fill="#E30611"/>
<path d="M63.9593 3.99512C65.036 3.99512 65.937 4.09712 66.6623 4.30112C67.399 4.49378 67.9486 4.81678 68.3113 5.27012C68.6853 5.71212 68.8723 6.31278 68.8723 7.07212C68.8723 7.52545 68.7986 7.93912 68.6513 8.31312C68.504 8.68712 68.2886 8.99312 68.0053 9.23112C67.7333 9.46912 67.399 9.62212 67.0023 9.69012V9.77512C67.4103 9.85445 67.7786 9.99612 68.1073 10.2001C68.436 10.4041 68.6966 10.6988 68.8893 11.0841C69.082 11.4695 69.1783 11.9795 69.1783 12.6141C69.1783 13.3508 68.997 13.9855 68.6343 14.5181C68.283 15.0395 67.773 15.4418 67.1043 15.7251C66.4356 15.9971 65.6423 16.1331 64.7243 16.1331H60.1853V3.99512H63.9593ZM64.2483 8.80612C64.9963 8.80612 65.512 8.68712 65.7953 8.44912C66.09 8.21112 66.2373 7.86545 66.2373 7.41212C66.2373 6.94745 66.0673 6.61312 65.7273 6.40912C65.3873 6.20512 64.849 6.10312 64.1123 6.10312H62.7523V8.80612H64.2483ZM62.7523 10.8461V14.0081H64.4353C65.206 14.0081 65.7443 13.8608 66.0503 13.5661C66.3563 13.2601 66.5093 12.8578 66.5093 12.3591C66.5093 12.0531 66.4413 11.7868 66.3053 11.5601C66.1806 11.3335 65.9596 11.1578 65.6423 11.0331C65.325 10.9085 64.8943 10.8461 64.3503 10.8461H62.7523Z" fill="#E30611"/>
<path d="M57.1611 10.0466C57.1611 10.9873 57.0421 11.843 56.8041 12.6136C56.5774 13.373 56.2261 14.0303 55.7501 14.5856C55.2854 15.141 54.6847 15.5659 53.9481 15.8606C53.2227 16.1553 52.3671 16.3026 51.3811 16.3026C50.3951 16.3026 49.5337 16.1553 48.7971 15.8606C48.0717 15.5546 47.4711 15.1296 46.9951 14.5856C46.5304 14.0303 46.1791 13.3673 45.9411 12.5966C45.7144 11.8259 45.6011 10.9703 45.6011 10.0296C45.6011 8.77162 45.8051 7.67795 46.2131 6.74862C46.6324 5.81928 47.2671 5.09962 48.1171 4.58962C48.9784 4.06828 50.0721 3.80762 51.3981 3.80762C52.7127 3.80762 53.7951 4.06828 54.6451 4.58962C55.4951 5.09962 56.1241 5.82495 56.5321 6.76562C56.9514 7.69495 57.1611 8.78862 57.1611 10.0466ZM48.3041 10.0466C48.3041 10.8966 48.4117 11.6276 48.6271 12.2396C48.8424 12.8516 49.1767 13.322 49.6301 13.6506C50.0834 13.9793 50.6671 14.1436 51.3811 14.1436C52.1177 14.1436 52.7071 13.9793 53.1491 13.6506C53.6024 13.322 53.9311 12.8516 54.1351 12.2396C54.3504 11.6276 54.4581 10.8966 54.4581 10.0466C54.4581 8.76595 54.2201 7.76295 53.7441 7.03762C53.2681 6.31228 52.4861 5.94962 51.3981 5.94962C50.6727 5.94962 50.0834 6.11395 49.6301 6.44262C49.1767 6.77128 48.8424 7.24162 48.6271 7.85362C48.4117 8.46562 48.3041 9.19662 48.3041 10.0466Z" fill="#E30611"/>
<path d="M44.1047 3.99512V6.12012H39.0047V16.1331H36.4377V3.99512H44.1047Z" fill="#E30611"/>
<path d="M29.1289 3.99512C30.6929 3.99512 31.8319 4.33512 32.5459 5.01512C33.2713 5.68378 33.6339 6.60745 33.6339 7.78612C33.6339 8.31878 33.5546 8.82878 33.3959 9.31612C33.2373 9.79212 32.9709 10.2228 32.5969 10.6081C32.2343 10.9821 31.7526 11.2768 31.1519 11.4921C30.5513 11.7075 29.8089 11.8151 28.9249 11.8151H27.8199V16.1331H25.2529V3.99512H29.1289ZM28.9929 6.10312H27.8199V9.70712H28.6699C29.1573 9.70712 29.5766 9.64478 29.9279 9.52012C30.2793 9.39545 30.5513 9.19712 30.7439 8.92512C30.9366 8.65312 31.0329 8.30178 31.0329 7.87112C31.0329 7.27045 30.8686 6.82845 30.5399 6.54512C30.2113 6.25045 29.6956 6.10312 28.9929 6.10312Z" fill="#E30611"/>
<path d="M22.2287 10.0466C22.2287 10.9873 22.1097 11.843 21.8717 12.6136C21.645 13.373 21.2937 14.0303 20.8177 14.5856C20.353 15.141 19.7524 15.5659 19.0157 15.8606C18.2904 16.1553 17.4347 16.3026 16.4487 16.3026C15.4627 16.3026 14.6014 16.1553 13.8647 15.8606C13.1394 15.5546 12.5387 15.1296 12.0627 14.5856C11.598 14.0303 11.2467 13.3673 11.0087 12.5966C10.782 11.8259 10.6687 10.9703 10.6687 10.0296C10.6687 8.77162 10.8727 7.67795 11.2807 6.74862C11.7 5.81928 12.3347 5.09962 13.1847 4.58962C14.046 4.06828 15.1397 3.80762 16.4657 3.80762C17.7804 3.80762 18.8627 4.06828 19.7127 4.58962C20.5627 5.09962 21.1917 5.82495 21.5997 6.76562C22.019 7.69495 22.2287 8.78862 22.2287 10.0466ZM13.3717 10.0466C13.3717 10.8966 13.4794 11.6276 13.6947 12.2396C13.91 12.8516 14.2444 13.322 14.6977 13.6506C15.151 13.9793 15.7347 14.1436 16.4487 14.1436C17.1854 14.1436 17.7747 13.9793 18.2167 13.6506C18.67 13.322 18.9987 12.8516 19.2027 12.2396C19.418 11.6276 19.5257 10.8966 19.5257 10.0466C19.5257 8.76595 19.2877 7.76295 18.8117 7.03762C18.3357 6.31228 17.5537 5.94962 16.4657 5.94962C15.7404 5.94962 15.151 6.11395 14.6977 6.44262C14.2444 6.77128 13.91 7.24162 13.6947 7.85362C13.4794 8.46562 13.3717 9.19662 13.3717 10.0466Z" fill="#E30611"/>
<path d="M5.865 16.1331H3.298V6.13712H0V3.99512H9.163V6.13712H5.865V16.1331Z" fill="#E30611"/>
<path d="M46.596 43.2899L41.939 38.6339L18.641 38.6289V33.9619H46.596V24.6689H0V52.5989H18.641V50.2729H27.96V59.5809H18.64V57.2549H0V66.5629L4.662 71.2199H41.939L46.596 66.5629V43.2899ZM97.796 43.2899L93.139 38.5879H69.836V33.9469H97.796V24.6689H51.2V52.5989H69.836V50.2729H79.154L79.16 59.5809H69.836V57.2549H51.2V66.5629L55.857 71.2199H93.139L97.796 66.5629V43.2899ZM148.996 43.2899L144.334 38.5879H121.036V33.9469H148.996V24.6689H102.4V52.5989H121.036V50.2729H130.355L130.36 59.5809H121.036V57.2549H102.4V66.5629L107.057 71.2199H144.334L148.996 66.5629V43.2899Z" fill="#E3000B"/>
</svg>
