<?xml version="1.0" standalone="no"?>
<!DOCTYPE svg PUBLIC "-//W3C//DTD SVG 20010904//EN"
 "http://www.w3.org/TR/2001/REC-SVG-20010904/DTD/svg10.dtd">
<svg version="1.0" xmlns="http://www.w3.org/2000/svg"
 width="512.000000pt" height="512.000000pt" viewBox="0 0 512.000000 512.000000"
 preserveAspectRatio="xMidYMid meet">
<metadata>
Created by potrace 1.14, written by Peter Selinger 2001-2017
</metadata>
<g transform="translate(0.000000,512.000000) scale(0.100000,-0.100000)"
fill="#000000" stroke="none">
<path d="M0 2560 l0 -2560 2560 0 2560 0 0 2560 0 2560 -2560 0 -2560 0 0
-2560z m1730 745 l0 -185 -420 0 -420 0 0 -95 0 -95 350 0 350 0 70 -95 70
-95 0 -459 0 -459 -71 -96 -71 -96 -557 0 -557 0 -72 97 -72 97 2 181 3 180
278 3 277 2 0 -45 0 -45 140 0 140 0 0 185 0 185 -140 0 -140 0 0 -50 0 -50
-277 2 -278 3 -3 558 -2 557 700 0 700 0 0 -185z m1530 0 l0 -185 -420 0 -420
0 0 -95 0 -95 352 -2 352 -3 68 -94 68 -93 0 -457 0 -457 -72 -97 -72 -97
-557 0 -557 0 -71 96 -71 97 2 181 3 181 278 3 277 2 0 -45 0 -45 140 0 140 0
0 185 0 185 -140 0 -140 0 0 -50 0 -50 -277 2 -278 3 -3 558 -2 557 700 0 700
0 0 -185z m1530 0 l0 -185 -420 0 -420 0 0 -95 0 -95 349 0 349 0 71 -96 71
-96 0 -457 0 -457 -72 -97 -72 -97 -557 0 -557 0 -71 95 -71 95 2 183 3 182
278 3 277 2 0 -45 0 -45 140 0 140 0 0 185 0 185 -140 0 -140 0 0 -50 0 -50
-277 2 -278 3 -3 558 -2 557 700 0 700 0 0 -185z"/>
</g>
</svg>
